<?xml version="1.0" encoding="UTF-8"?><svg id="Laag_1" xmlns="http://www.w3.org/2000/svg" viewBox="0 0 70 66"><defs><style>.cls-1{fill:#00247d;}.cls-2{fill:#fff;}.cls-3{fill:#cf142b;}</style></defs><polygon class="cls-1" points="3.63 18.04 3.23 22.34 9.71 22.34 3.63 18.04"/><path class="cls-1" d="M2.02,62.73c1.59,1.93,3.97,3.18,6.67,3.18l13.06,.02,1.56-17.79L2.02,62.73Z"/><polygon class="cls-1" points="66.42 47.29 66.83 42.94 60.27 42.94 66.42 47.29"/><path class="cls-1" d="M42.42,65.97l14.31,.03c3.4,0,6.38-1.97,7.82-4.9l-20.44-14.45-1.69,19.32Z"/><polygon class="cls-1" points="68.77 22.34 69.3 16.64 60.97 22.34 68.77 22.34"/><polygon class="cls-1" points="1.29 42.94 .76 48.61 9.03 42.94 1.29 42.94"/><path class="cls-1" d="M27.52,0H13.24C10.05,0,7.23,1.75,5.72,4.38l20.17,14.25L27.52,0Z"/><path class="cls-1" d="M67.65,2.79C66.06,1.08,63.82,0,61.3,0h-13.1l-1.5,17.14L67.65,2.79Z"/><path class="cls-2" d="M68.38,26.46l.39-4.12h-7.79l8.33-5.71,.66-7.02c.25-2.62-.68-5.06-2.31-6.83l-20.95,14.35L48.2,0h-4.14l-2.32,26.46h26.63Z"/><path class="cls-2" d="M40.66,38.82l-2.38,27.14h4.14l1.69-19.31,20.44,14.45c.46-.94,.76-1.97,.86-3.06l1.01-10.75-6.15-4.35h6.56l.39-4.12h-26.56Z"/><path class="cls-2" d="M1.68,38.82l-.39,4.12h7.73L.76,48.61,.04,56.29c-.23,2.43,.55,4.71,1.98,6.44l21.29-14.58-1.56,17.79h4.14l2.37-27.11H1.68Z"/><path class="cls-2" d="M31.65,0h-4.14l-1.63,18.64L5.72,4.38c-.61,1.07-1.02,2.27-1.14,3.58l-.95,10.08,6.08,4.3H3.23l-.39,4.12H29.34L31.65,0Z"/><polygon class="cls-3" points="67.22 38.82 68.38 26.46 41.75 26.46 44.06 0 31.65 0 29.34 26.46 2.84 26.46 1.68 38.82 28.25 38.82 25.88 65.94 38.29 65.97 40.66 38.82 67.22 38.82"/></svg>